<svg xmlns="http://www.w3.org/2000/svg" xmlns:xlink="http://www.w3.org/1999/xlink" viewBox="0 0 1455.69 1358.14"><defs><style>.cls-1{isolation:isolate;}.cls-16,.cls-17,.cls-18,.cls-19,.cls-2,.cls-20,.cls-21,.cls-3{opacity:0.2;}.cls-2{fill:url(#linear-gradient);}.cls-3{fill:#3d6e89;}.cls-11,.cls-15,.cls-3{mix-blend-mode:multiply;}.cls-4{fill:#f5aa8d;}.cls-5{fill:#cb5745;}.cls-6{fill:#1f2541;}.cls-7{fill:#160c41;}.cls-8{fill:#e27c57;}.cls-9{fill:url(#linear-gradient-2);}.cls-10{fill:url(#linear-gradient-3);}.cls-11{fill:#5b72b4;opacity:0.55;}.cls-12{fill:#ebf0f9;}.cls-13{fill:#b1c8d3;}.cls-14{fill:url(#linear-gradient-4);}.cls-16{fill:#fff;}.cls-17{fill:url(#linear-gradient-5);}.cls-18{fill:url(#linear-gradient-6);}.cls-19{fill:url(#linear-gradient-7);}.cls-20{fill:url(#linear-gradient-8);}.cls-21{fill:url(#linear-gradient-9);}</style><linearGradient id="linear-gradient" x1="1204.05" y1="574.57" x2="458" y2="1628.26" gradientUnits="userSpaceOnUse"><stop offset="0" stop-color="#189355"/><stop offset="1" stop-color="#69c181"/></linearGradient><linearGradient id="linear-gradient-2" x1="1210.83" y1="597.03" x2="1189.86" y2="598.69" gradientTransform="matrix(1, -0.09, 0.09, 1, -56.57, 25.33)" gradientUnits="userSpaceOnUse"><stop offset="0" stop-color="#f15956"/><stop offset="1" stop-color="#ee1c56"/></linearGradient><linearGradient id="linear-gradient-3" x1="1074.09" y1="978.78" x2="924.66" y2="1189.09" gradientTransform="matrix(1, 0.02, -0.02, 1, 17.45, -14.57)" gradientUnits="userSpaceOnUse"><stop offset="0" stop-color="#57b9d6"/><stop offset="0.77" stop-color="#5d6fb5"/></linearGradient><linearGradient id="linear-gradient-4" x1="1174.94" y1="578.42" x2="873.1" y2="1005.44" xlink:href="#linear-gradient-3"/><linearGradient id="linear-gradient-5" x1="703.35" y1="331.16" x2="663.23" y2="385.27" xlink:href="#linear-gradient"/><linearGradient id="linear-gradient-6" x1="1391.75" y1="364.18" x2="1363.12" y2="402.79" xlink:href="#linear-gradient"/><linearGradient id="linear-gradient-7" x1="1628.62" y1="627.86" x2="1586.74" y2="684.34" xlink:href="#linear-gradient"/><linearGradient id="linear-gradient-8" x1="1604.9" y1="1424.01" x2="1566.34" y2="1476" xlink:href="#linear-gradient"/><linearGradient id="linear-gradient-9" x1="1183.01" y1="1321.78" x2="1162.72" y2="1349.15" xlink:href="#linear-gradient"/></defs><title>football-player2</title><g class="cls-1"><g id="Layer_1" data-name="Layer 1"><path class="cls-2" d="M951.6,326.22C869.05,356,808.72,434.54,723.16,454c-84.71,19.26-172.49-24.4-258.76-14.25-65.54,7.71-126.35,48.43-158.45,106.1s-34.66,130.8-6.67,190.56c16.86,36,43.63,66.54,62.43,101.6,43,80.21,40.91,176.69,29.14,267s-32.13,180.93-21.78,271.36,59.67,183.61,145.25,214.6c93.3,33.77,195.72-14.53,294.83-9.79,91.23,4.35,173.71,53.16,261.67,77.73s200.25,15.12,246-63.92c13.33-23,19.38-49.52,31.39-73.24,30.14-59.53,92.71-93.77,147.68-131.6,100.9-69.43,188-165.53,223.76-282.67s12.11-256.33-77.45-339.87c-82-76.47-207.94-100.71-273.37-191.75-21-29.28-34.09-63.45-52.1-94.69-46.41-80.52-127.46-140.28-218.1-160.81C1050.15,309.31,998.38,309.36,951.6,326.22Z" transform="translate(-279.95 -312.69)"/><path class="cls-3" d="M1599.31,1303.34c54.36-55.91,97.69-121.67,120.36-195.92q3.36-11,6-22.32c0-.08,0-.17,0-.26q2.63-11.14,4.57-22.48h0l-.2-.11-.5-.35c-.27-.2-.54-.4-.79-.62s-.29-.25-.43-.39a10.31,10.31,0,0,1-.73-.75c-.12-.13-.24-.25-.35-.39-.26-.3-.49-.62-.72-.94l-.23-.33a19.3,19.3,0,0,1-1.6-2.94,34.79,34.79,0,0,1-2.41-10.71c0-.13,0-.24,0-.37a43.48,43.48,0,0,0,5.82-9.22c3.95-8.25,4.2-10.44,4.2-10.44h0c.25-.8.49-1.61.71-2.43a5.28,5.28,0,0,0,.71-.18,8.61,8.61,0,0,0,1.11-.7h0c.28-4.79.41-9.59.51-14.39,0-1.7.07-3.4.08-5.1,0-4.77,0-9.55-.16-14.32,0-.91-.09-1.81-.12-2.71-.43-10.73-1.28-21.43-2.64-32.05h0a6.26,6.26,0,0,0-3.26-1,6.6,6.6,0,0,0-2.67.59,4.43,4.43,0,0,0,.1-.9,5.74,5.74,0,0,0-5.88-5.58,3.53,3.53,0,1,1-5.16,2.29,6.06,6.06,0,0,0-6.21-5.9,6.27,6.27,0,0,1-12.17,0,6.06,6.06,0,0,0-6.2,5.9,5.7,5.7,0,0,0,.09.83,5.9,5.9,0,0,0-5.25-3.12,5.74,5.74,0,0,0-5.88,5.58,5.28,5.28,0,0,0,.09.9,6.51,6.51,0,0,0-2.66-.59,6.06,6.06,0,0,0-6.21,5.9,5.61,5.61,0,0,0,1,3.16,6.37,6.37,0,0,0-6.1,6.2,6,6,0,0,0,1.68,4.13,6.31,6.31,0,0,0-5.26,6.09,6.23,6.23,0,0,0,4.56,5.89v.06a4.42,4.42,0,0,0-.54,8.75,51.25,51.25,0,0,0,1,7.64,3.36,3.36,0,0,0-1.35.18c-3,1-1.49,19.06,7.12,22.29a5.28,5.28,0,0,0,.71.18c.22.84.47,1.67.73,2.5l-.11-.07s.25,2.19,4.2,10.44a43.32,43.32,0,0,0,5.89,9.31c0,.11,0,.21,0,.31a34.6,34.6,0,0,1-2.41,10.68,19.51,19.51,0,0,1-1.6,3l-.21.28a12.08,12.08,0,0,1-.75,1c-.1.13-.22.25-.33.38s-.49.52-.75.76-.28.26-.42.38a9.5,9.5,0,0,1-.8.62c-.16.12-.32.24-.49.35s-.58.35-.89.51l-.53.28c-.33.15-.68.28-1,.4v-15.81c0-8.58-5.37-16.22-13.73-21.21l0-.74c-.35-6.73-5.44-10.77-12.35-13.43s-15.62-3.94-23.23-5.18c-.31-.05-.58-.14-.87-.21v-.05l-3.1-3.41a97.47,97.47,0,0,0,15-7c-4.81-8.51-5.25-24.52-4.81-38a19.67,19.67,0,0,0,.35-7.82c.31-5.73.65-10.43.65-13,0-18.47-17-33.44-35.57-33.44h0c-18.54,0-35.58,15-35.58,33.44,0,9,2,53.19-3.8,58.78a102.19,102.19,0,0,0,15.16,6.92l-3.15,3.46h0a10.75,10.75,0,0,1-1.05.25c-7.61,1.24-16.33,2.52-23.23,5.18s-12,6.7-12.35,13.43c0,1-.09,2.07-.13,3.12-6.33,4.89-10.24,11.51-10.24,18.83v16.49l-.46-.08a11.66,11.66,0,0,1-1.72-.4l-.51-.18c-.36-.13-.72-.27-1.06-.42l-.54-.28c-.3-.16-.6-.33-.88-.51l-.5-.35c-.27-.2-.53-.4-.78-.62a5.34,5.34,0,0,1-.44-.39,10.31,10.31,0,0,1-.73-.75c-.12-.13-.24-.25-.35-.39-.25-.3-.49-.62-.72-.94l-.23-.33a18.42,18.42,0,0,1-1.59-2.94,34.51,34.51,0,0,1-2.42-10.71c-.1-1.2-.15-2.36-.18-3.5a50.39,50.39,0,0,0,6.24-7.4,45.18,45.18,0,0,0,4.65-11.56,5.57,5.57,0,0,0,.7-.18c8.61-3.23,10.07-21.26,7.12-22.29a3.41,3.41,0,0,0-1.36-.18c.1-.54.21-1.1.3-1.65a93.37,93.37,0,0,0,2.25-18.86c0-16.38-10.27-25.89-24.74-29.37-1.2-.3-8.21-8-21-8l7.25,6.42h0c-7.18-.24-12.19-6.25-23-3.39l8.24,5.29c-2.28.14-13.09-3.21-19.85,1.3l7.8,3.46c-7.63,4.51-12.31,16.65-11.69,24.25.36,4.32.95,9.42,1.65,13.94a55,55,0,0,0,.89,6.57,3.36,3.36,0,0,0-1.35.18c-2.95,1-1.49,19.06,7.12,22.29a5.69,5.69,0,0,0,.71.18,45.16,45.16,0,0,0,4.64,11.56,51.87,51.87,0,0,0,6.24,7.44c0,1.13-.08,2.3-.18,3.49a34.6,34.6,0,0,1-2.41,10.68,19.51,19.51,0,0,1-1.6,3l-.21.28c-.24.34-.48.67-.74,1l-.34.38c-.24.26-.48.52-.74.76l-.43.38a9.36,9.36,0,0,1-.79.62l-.5.35c-.28.18-.58.35-.89.51l-.53.28c-.33.15-.68.28-1,.4v-15.81c0-8.64-5.44-16.32-13.9-21.3-.06-5.07-.17-9.69-.35-13-.62-11.8-17.51-16.16-31.85-18.72l-5.34-3.42-.16.32-7.54-5.66a33.27,33.27,0,0,1-1.66-8.34c-.09-1.08-.13-2.13-.16-3.15a46.8,46.8,0,0,0,5.63-6.67,41.22,41.22,0,0,0,4.18-10.42c.21-.06.4-.08.64-.17,7.76-2.91,9.07-19.16,6.42-20.09a3.21,3.21,0,0,0-1.17-.16,43.4,43.4,0,0,0,.88-7.67c0-.43,0-.94,0-1.51s0-.95,0-1.45c.18-15.34-2.61-24.93-11.27-29.81-6.74-3.8-17.83-4.95-29-4.56-15.82.55-15.12,9.2-15.12,9.2-10.57-.84-11.32,14.61-11.32,24.78,0,.51,0,1,0,1.52,0,1,0,2.1,0,3.13a48.63,48.63,0,0,0,.89,6.38,3,3,0,0,0-1.29.15c-2.66.93-1.34,17.18,6.42,20.09a6.12,6.12,0,0,0,.64.17,40.49,40.49,0,0,0,4.18,10.42,47.44,47.44,0,0,0,5.62,6.7c0,1-.07,2.07-.16,3.15a33,33,0,0,1-1.66,8.3l-7.5,5.63-.14-.28-6.11,3.91c-7.25,1.29-15,3-21,5.93-9.19-26.18-25.62-47.55-52.7-47.55-23.71,0-39.49,18.63-49.18,42.35-.58-.4-1.17-.8-1.8-1.16h0s-3.9-3.83-27.54-7.24h0a10.21,10.21,0,0,1-1.65-.4c-.17,0-.32-.11-.48-.17-.35-.13-.7-.27-1-.43l-.48-.25a10.67,10.67,0,0,1-.91-.57c-.13-.09-.26-.17-.38-.27a9.3,9.3,0,0,1-1.12-1l0,0a12.4,12.4,0,0,1-1-1.15c-.09-.11-.17-.24-.25-.35-.22-.3-.43-.61-.63-.94l-.26-.43c-.19-.33-.36-.67-.53-1-.07-.14-.13-.26-.19-.4-.22-.48-.43-1-.61-1.48a32.93,32.93,0,0,1-1.72-8.49c-.09-1.08-.13-2.13-.16-3.15a46.37,46.37,0,0,0,5.64-6.67,40.72,40.72,0,0,0,4.19-10.42,4.16,4.16,0,0,0,.63-.16c7.78-2.92,9.1-19.16,6.44-20.09a3,3,0,0,0-1.24-.16,48.63,48.63,0,0,0,.89-6.38,34.28,34.28,0,0,0,0-3.79c0-.29,0-.57,0-.86A33.3,33.3,0,0,0,1171,885.16h0a33.3,33.3,0,0,0-33.37,33.24c0,.64,0,1.25,0,1.86s0,1.07,0,1.5a43.45,43.45,0,0,0,.87,7.67,2.92,2.92,0,0,0-1.22.16c-2.66.93-1.34,17.17,6.44,20.09a4.16,4.16,0,0,0,.63.16,40.72,40.72,0,0,0,4.19,10.42,46.15,46.15,0,0,0,5.64,6.7c0,1-.08,2.07-.17,3.15a32.76,32.76,0,0,1-1.71,8.47c-.18.5-.39,1-.61,1.47-.06.14-.13.28-.2.41-.16.34-.34.67-.52,1l-.27.45c-.19.31-.39.61-.61.91-.09.12-.17.25-.27.37a10.88,10.88,0,0,1-1,1.14l0,0a10.39,10.39,0,0,1-1.12,1l-.38.26a8.64,8.64,0,0,1-.91.57l-.49.25a10.4,10.4,0,0,1-1,.43c-.16.06-.31.12-.48.17a10.35,10.35,0,0,1-1.64.4c-23.66,3.41-27.56,7.24-27.56,7.24h0a17.06,17.06,0,0,0-5.67,4.94c-6.12-27.08-19.59-50.46-44.64-50.46h0c-26.94,0-40,26.49-45.22,55.85-6.35-2.81-14.63-4.23-22.21-5.45a27.24,27.24,0,0,0,6.84-17.76c0-8-3.72-15.25-9.77-20.76,5.36-2.68,7.38-11.85,7-16.73a26.1,26.1,0,0,0,2.8-11.67c0-17.15-17-31.05-37.9-31.05s-37.89,13.9-37.89,31.05a26.34,26.34,0,0,0,3,12.12c-.25,4.92,1.76,13.52,6.86,16.21-6.1,5.51-9.85,12.8-9.85,20.83a27.26,27.26,0,0,0,6.86,17.79c-14.66,2.37-31.94,5.48-32.6,18.05-.15,2.88-.25,6.8-.32,11.14-6.37,4.89-10.3,11.54-10.3,18.88v7.63l-.17,0a13,13,0,0,1-1.74-.41l-.52-.19c-.36-.13-.72-.26-1.06-.42s-.37-.19-.55-.29a8.85,8.85,0,0,1-.89-.51l-.5-.35a9.5,9.5,0,0,1-.8-.62l-.44-.39c-.25-.24-.5-.49-.73-.75l-.36-.4c-.25-.31-.49-.63-.72-1l-.24-.33a18.67,18.67,0,0,1-1.6-3,34.81,34.81,0,0,1-2.44-10.79c-.1-1.21-.15-2.38-.18-3.52a51.91,51.91,0,0,0,6.3-7.46,45.44,45.44,0,0,0,4.68-11.64,6,6,0,0,0,.72-.19,9.14,9.14,0,0,0,3.49-2.48c5.45-1.52,8.86-3.69,8.77-6.62-.53-17.57.08-18.36.08-24.48,0-23-20.52-41.69-42.84-41.69h0c-22.33,0-42.84,18.67-42.84,41.69,0,6.63,1.82,5.74,1.26,23.22-.06,1.89,2,3.58,5.56,5a11.07,11.07,0,0,0,5.53,5.33,5.38,5.38,0,0,0,.71.19,45.8,45.8,0,0,0,4.68,11.64,51.69,51.69,0,0,0,6.3,7.49c0,1.14-.08,2.32-.18,3.52a34.84,34.84,0,0,1-2.44,10.76,18.38,18.38,0,0,1-1.61,3l-.21.3c-.24.33-.49.66-.75,1l-.34.38c-.24.26-.49.52-.75.77s-.28.26-.43.38-.53.43-.8.63l-.5.34a10,10,0,0,1-.9.52l-.54.28c-.24.11-.51.21-.77.3v-6.89c0-9-5.89-16.92-14.94-21.88-.06-6.86-.17-13-.37-16.9-.71-13.43-20.3-16.08-35.48-18.56a11.39,11.39,0,0,1-8.42-6.28c.19-.76.06-1.44-.42-1.71v-8.87a4.16,4.16,0,0,0-.58-2.1h0l-.09-.13A1.37,1.37,0,0,0,771,971a3.41,3.41,0,0,0-1.62-1.37,45.49,45.49,0,0,0,5.47-6.54,40.52,40.52,0,0,0,4.2-10.44,6.12,6.12,0,0,0,.64-.17c7.8-2.92,9.12-19.22,6.45-20.15a3,3,0,0,0-1.22-.16,44.58,44.58,0,0,0,.88-7.69c0-.43,0-.93,0-1.5s0-1.23,0-1.86a33.41,33.41,0,0,0-33.47-33.35h0a33.4,33.4,0,0,0-33.46,33.35c0,.29,0,.57,0,.85a32.31,32.31,0,0,0,0,3.81,47.14,47.14,0,0,0,.89,6.39,3.14,3.14,0,0,0-1.24.16c-2.67.93-1.35,17.23,6.45,20.15a6,6,0,0,0,.63.17,40.89,40.89,0,0,0,4.21,10.44,45.09,45.09,0,0,0,5.51,6.55,4.17,4.17,0,0,0-1.47,1.13,2.75,2.75,0,0,0-.22.26l-.15.24-.07.11h0a4.13,4.13,0,0,0-.56,2.06v8.87a1.8,1.8,0,0,0-.56,2,11.32,11.32,0,0,1-8.29,6c-12,2-26.63,4-32.66,11.4a36.58,36.58,0,0,1,1.23-8c10.68-31.78-16.68-48.76-45-45.81h0c-23.45,0-45,20.51-45,45.81,0,2.61.25,6.9.54,12.18-2.09-3.55-5.93-6.06-10.67-7.88a64.24,64.24,0,0,0-8.38-2.49l-2.27-.49c-3.72-20.6-.51-51.12-.51-60.11,0-22.77-19.39-41.23-40.49-41.23h0c-21.1,0-40.49,18.46-40.49,41.23,0,8.37,1.26,41.54-.95,60.21A67,67,0,0,0,489.14,998c-6.9,2.66-12,6.69-12.35,13.43-.22,4.17-.33,10.63-.39,17.57-6.17,4.87-10,11.41-10,18.62v7.52a12.7,12.7,0,0,1-8.11-6.4,2,2,0,0,0-.62-2.17v-9.85a4.61,4.61,0,0,0-.63-2.3h0l-.08-.12c-.06-.09-.11-.18-.17-.26a3.7,3.7,0,0,0-.24-.29,4.57,4.57,0,0,0-1.64-1.25,51.41,51.41,0,0,0,6.13-7.28,45.57,45.57,0,0,0,4.67-11.61,6.17,6.17,0,0,0,.71-.18c8.66-3.25,10.13-21.36,7.16-22.39a3.51,3.51,0,0,0-1.38-.18,51.52,51.52,0,0,0,1-7.1,37.32,37.32,0,0,0,0-4.23c0-.32,0-.63,0-.95A37.11,37.11,0,0,0,436,941.53h0a37.11,37.11,0,0,0-37.18,37.05c0,.7,0,1.39,0,2.06s0,1.2,0,1.68a48,48,0,0,0,1,8.54,3.43,3.43,0,0,0-1.36.18c-.22.08-.37.42-.54.68v.07c.09,3.71.2,7.43.21,11.16h0c1.24,4.55,3.61,9,7.5,10.47a5.28,5.28,0,0,0,.71.18,45.21,45.21,0,0,0,4.67,11.61,51.65,51.65,0,0,0,6.08,7.26,3.87,3.87,0,0,0-1.81,1.52l-.16.24-.1.14v0a4.58,4.58,0,0,0-.65,2.33v9.85c-.53.3-.67,1.05-.46,1.9a12.77,12.77,0,0,1-8.27,6.67v-7.52c0-6.46-3.05-12.39-8.12-17.05h0c-.78,18.31-2.29,36.6-4.32,54.71-.06.49-.1,1-.16,1.47q-1,9.13-2.21,18.19c-8.61,66-21.76,132.21-24.18,198.39Z" transform="translate(-279.95 -312.69)"/><path class="cls-4" d="M1036.24,557.64s41.6-5,47.8-97.81l68.36,40.05s-16.64,65.11,2.7,87.75c0,0,52,93.92,40.53,133.17-1,3.5-10.52,36.49-10.52,36.49-51.06,51.62-207.27,4.07-246.08-.42-17.48-2-43.49-75.86-32-101.62C933.16,596.29,1036.24,557.64,1036.24,557.64Z" transform="translate(-279.95 -312.69)"/><path class="cls-5" d="M1114.47,691.78,1113,781c29.79-1.08,56.12-7.51,72.11-23.69,0,0,9.5-33,10.52-36.49,2.21-7.55,2-17.14.38-27.67Z" transform="translate(-279.95 -312.69)"/><path class="cls-5" d="M989.7,579.64c-30.93,17.09-68.37,43.29-82.72,75.61-11.44,25.76,14.57,99.6,32,101.62,12.25,1.42,29.11-5.5,48-17.19Z" transform="translate(-279.95 -312.69)"/><path class="cls-5" d="M1080.68,609.9c-2.1-14.15-5.06-30.6-2.78-44.92,5-31.4,20.61-72,13-104.17l-6.9-1c-6.2,92.79-47.8,97.81-47.8,97.81s-10,69.9,47.52,76.55c1.34.16,2.54.12,3.83.21A110,110,0,0,1,1080.68,609.9Z" transform="translate(-279.95 -312.69)"/><path class="cls-6" d="M1212.89,1100.94s-12.93,39.29-47.5,58.84-79.27,34.13-79.27,34.13,5.68-71.79,30.91-91.09S1212.89,1100.94,1212.89,1100.94Z" transform="translate(-279.95 -312.69)"/><path class="cls-6" d="M776,1120s22.89,49,66.29,60.77,89.6,10.56,89.6,10.56S883.86,1102.61,776,1120Z" transform="translate(-279.95 -312.69)"/><path class="cls-4" d="M1453.09,611.61c-6.9-1.54-36.63,22.47-39.44,35.66-1.7,8-6.19,23.22-9.48,34.06a48.52,48.52,0,0,1-5.65,12.23c-17.94,27.81-85,83-101.5,107.24a6.09,6.09,0,0,1-10,.15c-32-44.07-55.63-150.14-67.53-168.15,0,0-56,6.34-82.67,61.58,19.13,19.67,110,154.3,130,172.4,9.42,8.54,17.56,18.35,34.21,10.67s112.63-143.51,134.25-177.14c4.92-7.67,14.17-13.2,22.94-15.65l.24-.07c24.24-6.6,30.21-22.07,31.1-29S1471.91,615.8,1453.09,611.61Z" transform="translate(-279.95 -312.69)"/><path class="cls-5" d="M1472.34,624.74c-4.13,2.84-10.28,3.87-14.32,4.6a81.12,81.12,0,0,1-11.52,1,19.93,19.93,0,0,0-19.07,16.52c-.09.51-.17,1-.24,1.57a24.62,24.62,0,0,1-.9,3.65l63,1C1488,647.06,1481.26,634.52,1472.34,624.74Z" transform="translate(-279.95 -312.69)"/><path class="cls-5" d="M1461.82,618.91a18.66,18.66,0,0,1-.8,8.57c-3.46,9.13-10.94,15.28-18.45,21.25-5.66,4.5-11.66,8.66-17.64,12.82l-.24,14.41a37.32,37.32,0,0,1,3.75-1c6.56-1.1,13,.86,19.37,3.24,13.66,5.07,29.61.63,37.48-11.64a27.43,27.43,0,0,0,4.25-11C1490.33,649.43,1477.62,627.68,1461.82,618.91Z" transform="translate(-279.95 -312.69)"/><path class="cls-4" d="M936.53,572.61S722.84,722.36,719.32,747.21s-35.11,177.94-42.44,182-31.46,19.72-40.48,31.51-23.49,40.09-20.46,45.33,6.75-.24,9.21-3c0,0-7.83,13.19-3.38,16.38s8.74-5.56,8.74-5.56-5.88,10.28-2.13,13.8,9.94-5,9.94-5-4.3,8.93,5.94,7c5.87-1.09,17.94-28.33,24.28-35.49s16.6-20.57,18-18.13,1.66,4.18.52,10.39-14.69,30.55-6.4,31.38,21.48-33.38,25.06-40.93S708.43,946,712,939.79s50-159.7,57.69-162.34,138.11-98.07,156.79-97.76S954.35,583.28,936.53,572.61Z" transform="translate(-279.95 -312.69)"/><path class="cls-4" d="M1452.21,611.58c-10.39.52-21.77,40.38-14.82,43.86s14.78-15.32,16.39-18.41c0,0-15.21,25.44-7.51,30.24s17.17-18.14,19.31-22c0,0-14,24.68-7.51,27.9s17.64-13.2,20.33-18.87c0,0-11.21,19.28-3.22,22.27s23-23.5,19.24-33.68S1462.6,611.06,1452.21,611.58Z" transform="translate(-279.95 -312.69)"/><path class="cls-4" d="M1404.4,688.89s4.36-12.64,4.8-23.27,36.24-36.46,43.82-27.28-3.37,24.32-18.1,30.56S1431.11,696.26,1404.4,688.89Z" transform="translate(-279.95 -312.69)"/><path class="cls-5" d="M1092.19,464.61c1.71,8.05,10.72,12,11.15,20.45.83,16.08-6,40.83-.71,56.29,8.48,25,25.8,37.79,48.81,40.54-13.26-26.23,1-82,1-82Z" transform="translate(-279.95 -312.69)"/><path class="cls-4" d="M1227.44,386.43c-4.29-7.11-37.25-15.36-65.09-21.18a51.44,51.44,0,0,0-51,18.68,62.62,62.62,0,0,1-16.91,14.84,26.2,26.2,0,0,0-10.13,11.83c-3.72,8.12-1.78,17.46,3.17,24.9,5.18,7.78,2.18,15.91,3.51,25.31,1.51,10.65-1.28,19.87,8.14,38.34,16.43,21.36,68.07,57.88,86.9,51.62,19.83-6.59,34.91-61,36.45-70.32s.31-18.68,1.79-24.53S1235,399,1227.44,386.43Z" transform="translate(-279.95 -312.69)"/><path class="cls-6" d="M1144.21,398.55s31.83,42,76.3,30.67,41.11-38.42,41.11-38.42-8.33,1.6-15.43-8.55-37-63.23-113.1-43.73c0,0-17.38,4.9-25.11,12.39,0,0-10.65-4.68-19.81,5.55s-23.66,44.24-8.55,95.69c0,0,1.26,6.55,2.09,13.31,1.28,10.37,15.61,13.29,20,3.83,1.42-3.05,2.25-7.11,2.06-12.51-.29-8.38-20.68-35.95,5.83-38.9,21.66-2.41,9.7,41.15,20,44.78S1146,452,1143.31,432.44C1140.21,410.25,1142,409.59,1144.21,398.55Z" transform="translate(-279.95 -312.69)"/><path class="cls-5" d="M1104.7,429.85s7.34-2,11.61,2c2.81,2.6,5.53,10.13.16,15.93-2.22,2.4-9.74,2.63-7.17-6.82C1110.68,435.89,1109.65,433.55,1104.7,429.85Z" transform="translate(-279.95 -312.69)"/><path class="cls-7" d="M1222,477.76a5.47,5.47,0,1,1-5.08-5.68A5.4,5.4,0,0,1,1222,477.76Z" transform="translate(-279.95 -312.69)"/><path class="cls-7" d="M1189.78,474.07c-.23,3.19-3.41,5.56-7.11,5.3s-6.51-3.06-6.28-6.25,3.4-5.55,7.1-5.29S1190,470.89,1189.78,474.07Z" transform="translate(-279.95 -312.69)"/><path class="cls-8" d="M1196.47,511l-.63-.13a1.79,1.79,0,0,1-1.47-2.08,1.83,1.83,0,0,1,2.21-1.27c3.81.83,6.42.73,7.43-.27,1.61-1.59.08-6.09-1-9.38-.44-1.29-.84-2.49-1.08-3.49-1.46-6.1,1.12-19.14,1.23-19.7a1.89,1.89,0,0,1,3.69.74c0,.13-2.55,12.92-1.26,18.33.22.92.59,2,1,3.2,1.46,4.32,3.29,9.69.25,12.7C1204.86,511.51,1201.48,512,1196.47,511Z" transform="translate(-279.95 -312.69)"/><path class="cls-9" d="M1190.88,523.61c-3.41-.08-7.72-1.54-12.32-6.49a1.5,1.5,0,1,1,2.19-2c8.72,9.35,15.35,4.23,15.63,4a1.51,1.51,0,0,1,2.11.24,1.49,1.49,0,0,1-.24,2.1A12.23,12.23,0,0,1,1190.88,523.61Z" transform="translate(-279.95 -312.69)"/><path class="cls-7" d="M1170.51,455.91a1.74,1.74,0,0,1-.71-3.31c.48-.23,12-5.55,24.31-1a1.74,1.74,0,1,1-1.2,3.27c-11-4-21.51.86-21.62.91A1.67,1.67,0,0,1,1170.51,455.91Z" transform="translate(-279.95 -312.69)"/><path class="cls-7" d="M1212.74,452.16a1.74,1.74,0,0,0,1,3.34,20.9,20.9,0,0,1,10.8.14c.06-.26.06-.61.12-.86.13-.53.33-1.45.56-2.55A24.58,24.58,0,0,0,1212.74,452.16Z" transform="translate(-279.95 -312.69)"/><path class="cls-4" d="M815.37,1116.25s-41.15,90.5-70.7,125.86c0,0-15.8,84.17,62.46,46.72,0,0,95.7-95.29,108.7-122.11S870.06,1127.41,815.37,1116.25Z" transform="translate(-279.95 -312.69)"/><path class="cls-5" d="M815.36,1254.05c-15-.59-27.58-4.68-36.65-17.29a80.64,80.64,0,0,1-12.19-26.49c-7.47,12.37-15,23.6-21.85,31.84,0,0-15.8,84.17,62.46,46.72,0,0,15.55-15.49,35-35.72A202.91,202.91,0,0,1,815.36,1254.05Z" transform="translate(-279.95 -312.69)"/><path class="cls-4" d="M1056,1147.9s36.86,30.53,84.8,46.64c1.17.4,2.12,11,14.8,14.66,6.19,1.82,22.54-1.37,28.84-1.65,70.39-3.15,49.52-39.84,49.52-39.84s-48.59-74.14-64.92-91S1051.68,1114.62,1056,1147.9Z" transform="translate(-279.95 -312.69)"/><path class="cls-5" d="M1148.53,1174.47c-24.69-19-46.54-41.64-67.45-64.67-15.65,12.72-26.58,26.68-25.11,38.1,0,0,36.86,30.53,84.8,46.64,1.17.4,2.12,11,14.8,14.66,6.19,1.82,22.54-1.37,28.84-1.65,5.48-.25,10.34-.72,14.76-1.33A316.39,316.39,0,0,1,1148.53,1174.47Z" transform="translate(-279.95 -312.69)"/><path class="cls-10" d="M890.56,926.8s-58.74,80-55.56,96.64-46.31,80.89-59,96.59c0,0,142.49,44.82,155.89,71.33,0,0,57.77-104.48,66.08-105s88.17,107.58,88.17,107.58,56.87-92.05,126.77-93c0,0-71.35-78.67-116.42-114.7S941,930.4,890.56,926.8Z" transform="translate(-279.95 -312.69)"/><path class="cls-11" d="M845.47,1144.43a74.55,74.55,0,0,1-1.63-27.43c3.2-26.21,27.22-32.1,37.65-53.2,11.9-24.08-13.88-48.31-.66-74.08,10.83-21.13,25.43-40.1,38.84-59.81-10.9-1.46-20.86-2.52-29.11-3.11,0,0-58.74,80-55.56,96.64s-46.31,80.89-59,96.59C776,1120,809.45,1130.57,845.47,1144.43Z" transform="translate(-279.95 -312.69)"/><path class="cls-11" d="M1092.75,1154.86c-5.15-20.7-1.24-29.86-23.36-40.69-7-3.44-15.83-7.76-18.27-16-3.68-12.41-2.24-20.35,5.66-30.84,9.76-12.93-20.43-7.5-27.13-7-23.15,1.73-36.54-4.25-50.39-14.58.88,14.53,0,29.83-9.86,39.91-13,13.27-22.7,20.18-25.38,39.9-1.23,9.1-2,18.29-6,26.74-3.43,7.28-9.75,18.58-17.7,27.75,5.65,4,9.76,7.81,11.53,11.3,0,0,57.77-104.48,66.08-105s88.17,107.58,88.17,107.58a263.46,263.46,0,0,1,16.94-23.39A26.75,26.75,0,0,1,1092.75,1154.86Z" transform="translate(-279.95 -312.69)"/><path class="cls-12" d="M1081,1298.77c4.49-68.51,15.21-79.93,43.66-94.77,4.53-2.36,10.4-5.66,13.66-7.72,8.55,4.44,20.77,3.73,29.82,3,23.62-1.93,46.09-5.86,67.75-14.1-1.52,6.95-5.37,16.15-13.82,28-23.37,32.83-109,165.65-154.34,284.26,0,0-17.87.78-43.9-25.6C1023.87,1471.84,1078.27,1341.1,1081,1298.77Z" transform="translate(-279.95 -312.69)"/><path class="cls-13" d="M1081,1298.77c4.49-68.51,15.21-79.93,43.66-94.77,6.23-3.24,15-8.28,16-9.41a36.08,36.08,0,0,0,9.3,4.53c3.77,1.18,10.22.29,13.84.47.53.5-28.78,14.78-37.85,24.64-17.26,18.79-24.53,46.26-29.62,77-10.57,63.71-40.65,121.67-57,184.1a124.32,124.32,0,0,1-15.55-13.47S1078.27,1341.1,1081,1298.77Z" transform="translate(-279.95 -312.69)"/><path class="cls-6" d="M1024.29,1469.55s-37.89,2.15-32.68,32.86,8.65,41.65,3.51,70.11-11.55,70.9,12.25,75.45,47.27-22,53.84-86.29,8-68,8-68S1044.12,1492,1024.29,1469.55Z" transform="translate(-279.95 -312.69)"/><path class="cls-12" d="M557.51,1509.73S637.59,1396,662.7,1345c9.83-19.94,14.15-47.88,25.5-64.23,17.64-25.42,43.12-47.73,68.15-54.72,0,0,.36,41.14,55.64,57.21,0,0-9.45,34.72-28,60.67-9,12.52-100.45,91-155.24,146.89-13.11,13.39-25.11,33.15-30,44.18C598.72,1535,570.54,1536.32,557.51,1509.73Z" transform="translate(-279.95 -312.69)"/><path class="cls-13" d="M662.79,1380.91c27.46-32.79,22.57-72.74,45.28-106.59,11.25-16.76,37.23-9.87,50.48-36.92a44.67,44.67,0,0,1-2.2-11.34c-25,7-50.51,29.31-68.15,54.73-11.35,16.35-15.67,44.29-25.5,64.23-25.11,50.93-105.19,164.71-105.19,164.71a45.36,45.36,0,0,0,6.64,10C594.15,1475.07,632.89,1416.63,662.79,1380.91Z" transform="translate(-279.95 -312.69)"/><path class="cls-6" d="M557.54,1508.1s-39.1,32.72-56.68,44.09c-73.42,47.51,15.93,83.38,44,75.5s23.67-41.57,37.91-56.52c15.62-16.39,14.77-23.66,16-37.78C598.75,1533.39,577.13,1531.36,557.54,1508.1Z" transform="translate(-279.95 -312.69)"/><path class="cls-14" d="M1048.8,551.83s-76.61,2.45-114.68,22.35c0,0,32.21,79.87-21.41,142.64,0,0,17.17,91.27,4.09,129.46s-63.69,84.31-55,122.21c0,0,90.76-27.18,156.56,10.23s108.49,29.43,108.49,29.43,9.9-33.7,1.38-83.66,40.69-124.91,56.84-167.2c0,0-16.53-85,34.37-124.49,0,0-39.61-43.66-71.69-61.52,0,0-14.56,44.35-46,35.88S1048.8,551.83,1048.8,551.83Z" transform="translate(-279.95 -312.69)"/><path class="cls-11" d="M988,954.18c3.64-14.33,46.27-59.89,35.32-70.62-27.64-27.09-61.49-51.2-40.44-94.92,14.37-29.86,57.13-42.59,42.67-83.43-10.14-28.64-35.3-53.1-40.54-83.33-5-29.21,1.19-49,14.93-65.52-22.63,3.23-48.28,8.66-65.8,17.82,0,0,32.21,79.87-21.41,142.64,0,0,17.17,91.27,4.09,129.46s-63.69,84.31-55,122.21c0,0,64.45-19.3,124.11-3A89.69,89.69,0,0,1,988,954.18Z" transform="translate(-279.95 -312.69)"/><path class="cls-11" d="M1197.62,658.58c-3.19,2-6.48,4-9.85,5.91-15.83,9.1-38.56,20-43.3,39.46-5.5,22.63,3.13,44.86.79,67.66-1.61,15.62-12.63,27.35-22.11,38.8-23.56,28.44-19.05,48.71-18.39,82.77.79,40.85-33.17,70.54-40.61,106.25,39.13,13.1,62.74,8.72,62.74,8.72s9.9-33.7,1.38-83.66,40.69-124.91,56.84-167.2C1185.11,757.29,1174.14,700.84,1197.62,658.58Z" transform="translate(-279.95 -312.69)"/><path class="cls-12" d="M1475,1407.42s-62-82.6-162.32-27.8c-49,26.75-60,116.64-14.44,162.6,36.38,36.73,128.56,46.23,169.92-8.19C1519.79,1466,1479.19,1412.36,1475,1407.42Z" transform="translate(-279.95 -312.69)"/><g class="cls-15"><path class="cls-13" d="M1440.34,1510.05c-31.09,5.42-59.67,7.6-88.64-3.64-47.77-18.52-59.1-65.92-57.47-111.86-32.44,36.25-35.18,108.16,4,147.67,36.38,36.73,128.56,46.23,169.92-8.19,11.83-15.58,18.65-30.38,22.35-44.08C1477.28,1499.32,1464.28,1505.88,1440.34,1510.05Z" transform="translate(-279.95 -312.69)"/></g><path class="cls-6" d="M1493.23,1476.89h0a94.46,94.46,0,0,0,.79-15.44h0a96.13,96.13,0,0,0-8.35-36.11l-23.06-18.42,0,.09-9.67-20.78c-.92-.71-1.86-1.41-2.84-2.11h0l11.61,24.54L1448.35,1433l-45.81-7.15-33-31.55,19.34-19.21,37.23,6.16,5.67-8.29a20.13,20.13,0,0,1-3.54-1.69c-1.47-.68-2.94-1.32-4.43-1.93q-4.21-1.74-8.55-3.15a114.68,114.68,0,0,0-18.16-4.28,110.06,110.06,0,0,0-37,.52l26.39,11.8-17.93,19.09h0l-45.32,15-21.55-4.23,14.53-26.29a76.15,76.15,0,0,0-25.41,20.8,97.68,97.68,0,0,0-15.66,30.31l25.65-23.62,21.83,4.28-.47,42.53-24.55,33.36-23.1-11.55-4.87-15.45c-.11,1.75-.17,3.5-.2,5.26l3.66,10.87-1.43,15.31c4.26,21.87,14.82,42.87,31.74,57l17.16-10.86,48,14.08,28.79,21.25h0c18.44-2.08,37.61-8.07,52.92-19.68l-1.39-35.72,19.72-38.64Zm-124,71-49-14.33-20.77-46.2,24.3-33.32,49.63,14.65.3-.39,22.22,41.75Zm77.8-34.26-49.26-5.47-22.75-41.72,27.84-37.71,44.58,6.63,19.42,40.82Z" transform="translate(-279.95 -312.69)"/><polygon class="cls-16" points="248.9 383.76 216.67 392 205.18 423.22 187.38 395.11 154.14 393.83 175.38 368.22 166.32 336.21 197.24 348.5 224.88 329.99 222.76 363.19 248.9 383.76"/><polygon class="cls-16" points="637.7 198.78 620.24 183.63 597.86 189.44 606.87 168.15 594.43 148.66 617.47 150.65 632.16 132.8 637.38 155.32 658.9 163.77 639.1 175.7 637.7 198.78"/><polygon class="cls-16" points="1253.14 537.22 1225.98 539.35 1212.35 562.93 1201.93 537.76 1175.29 532.08 1196.01 514.4 1193.18 487.31 1216.4 501.54 1241.29 490.49 1234.93 516.97 1253.14 537.22"/><polygon class="cls-16" points="610.8 1156.85 586.54 1152.59 569.28 1170.15 565.84 1145.77 543.8 1134.78 565.93 1123.97 569.57 1099.61 586.69 1117.32 610.98 1113.26 599.43 1135.01 610.8 1156.85"/><polygon class="cls-16" points="1092.08 922.95 1073.2 913.48 1054.7 923.65 1057.87 902.78 1042.48 888.32 1063.31 884.89 1072.3 865.78 1082 884.54 1102.96 887.18 1088.11 902.21 1092.08 922.95"/><path class="cls-17" d="M721.08,356.14a36.25,36.25,0,1,1-36.25-36.25A36.25,36.25,0,0,1,721.08,356.14Z" transform="translate(-279.95 -312.69)"/><path class="cls-18" d="M1404.4,382a25.87,25.87,0,1,1-25.87-25.87A25.87,25.87,0,0,1,1404.4,382Z" transform="translate(-279.95 -312.69)"/><path class="cls-19" d="M1647.13,653.94a37.85,37.85,0,1,1-37.85-37.84A37.85,37.85,0,0,1,1647.13,653.94Z" transform="translate(-279.95 -312.69)"/><path class="cls-20" d="M1621.93,1448a34.83,34.83,0,1,1-34.83-34.83A34.84,34.84,0,0,1,1621.93,1448Z" transform="translate(-279.95 -312.69)"/><circle class="cls-21" cx="1173.64" cy="1334.42" r="18.34"/></g></g></svg>