<?xml version="1.0" encoding="utf-8"?>
<!-- Generator: Adobe Illustrator 22.0.0, SVG Export Plug-In . SVG Version: 6.00 Build 0)  -->
<svg version="1.1" id="Layer_1" xmlns="http://www.w3.org/2000/svg" xmlns:xlink="http://www.w3.org/1999/xlink" x="0px" y="0px"
	 viewBox="0 0 512 512" style="enable-background:new 0 0 512 512;" xml:space="preserve">
<style type="text/css">
	.st0{fill:#F6FDFA;}
	.st1{fill:#B8F9D3;}
	.st2{fill:#4FC391;}
	.st3{fill:#59B08B;}
	.st4{display:none;}
	.st5{display:inline;}
</style>
<g>
	<g>
		<path class="st0" d="M240.9,345.8h30.2v78.6h-30.2L240.9,345.8z"/>
		<path class="st1" d="M240.9,345.8h17.2v78.6h-17.2L240.9,345.8z"/>
		<path class="st0" d="M99.5,464.2c-8.1,0-15.1,6.3-15.5,14.4c-0.4,8.7,6.5,15.8,15.1,15.8h103v-30.2H99.5z"/>
		<path class="st0" d="M412.6,464.2H309v30.2h104c8.6,0,15.5-7.2,15.1-15.8C427.7,470.5,420.7,464.2,412.6,464.2L412.6,464.2z"/>
		<path class="st1" d="M86.4,471.2c-1.4,2.1-2.3,4.7-2.4,7.4c-0.4,8.7,6.5,15.8,15.1,15.8h103v-16.4H99
			C93.7,478.1,89.1,475.3,86.4,471.2L86.4,471.2z"/>
		<path class="st1" d="M413,478.1H309v16.4h104c8.6,0,15.5-7.2,15.1-15.8c-0.1-2.7-1-5.2-2.4-7.4C423,475.3,418.3,478.1,413,478.1
			L413,478.1z"/>
		<path class="st2" d="M302.9,454.1h-18.2c-1.9,0-3.5-1.6-3.5-3.5v-19.2c0-5.6-4.5-10.1-10.1-10.1h-30.2c-5.6,0-10.1,4.5-10.1,10.1
			v19.2c0,1.9-1.6,3.5-3.5,3.5h-18.2c-5.6,0-10.1,4.5-10.1,10.1v30.2c0,5.6,4.5,10.1,10.1,10.1h93.7c5.6,0,10.1-4.5,10.1-10.1v-30.2
			C312.9,458.7,308.4,454.1,302.9,454.1z"/>
		<path class="st3" d="M227.5,494.4v-30.2c0-5.6,4.5-10.1,10.1-10.1h18.2c1.9,0,3.5-1.6,3.5-3.5v-19.2c0-5.6,4.5-10.1,10.1-10.1
			h-28.4c-5.6,0-10.1,4.5-10.1,10.1v19.2c0,1.9-1.6,3.5-3.5,3.5h-18.2c-5.6,0-10.1,4.5-10.1,10.1v30.2c0,5.6,4.5,10.1,10.1,10.1
			h28.4C232.1,504.5,227.5,500,227.5,494.4L227.5,494.4z"/>
		<g>
			<path class="st0" d="M256,37.7l-141.2,129v165.9c0,11,8.9,19.9,19.9,19.9h242.7c11,0,19.9-8.9,19.9-19.9V166.7L256,37.7z"/>
		</g>
		<path class="st1" d="M152,189.6c0-7.3,3.1-14.4,8.5-19.3l120.3-110L256,37.7l-141.2,129v165.9c0,11,8.9,19.9,19.9,19.9H152
			L152,189.6L152,189.6z"/>
		<path class="st1" d="M150.8,210h81.8v142.4h-81.8L150.8,210z"/>
		<path class="st2" d="M150.8,210h32.5v142.4h-32.5L150.8,210z"/>
		<path class="st1" d="M353.3,182.6h-75.3c-4.4,0-8,3.6-8,8v82.8c0,4.4,3.6,8,8,8h75.3c4.4,0,8-3.6,8-8v-82.8
			C361.3,186.2,357.7,182.6,353.3,182.6L353.3,182.6z"/>
		<path class="st2" d="M298.9,273.5v-82.8c0-4.4,3.6-8,8-8h-29c-4.4,0-8,3.6-8,8v82.8c0,4.4,3.6,8,8,8h29
			C302.5,281.5,298.9,277.9,298.9,273.5z"/>
		<path class="st2" d="M438.4,163.2L276.9,15.7C265,4.8,247,4.8,235.1,15.7L73.7,163.2c-6.6,6.1-7.1,16.3-1,23
			c6.1,6.6,16.3,7.1,23,1L252.7,43.7c1.9-1.7,4.8-1.7,6.7,0l157.1,143.5c6.6,6.1,16.9,5.6,23-1C445.5,179.6,445,169.3,438.4,163.2z"
			/>
		<g>
			<path class="st3" d="M254.6,42.6l8.9-8.2c7.1-6.5,16.4-9.1,25.3-7.9l-11.9-10.9C265,4.8,247,4.8,235.1,15.7L73.7,163.2
				c-6.6,6.1-7.1,16.3-1,23c6.1,6.6,16.3,7.1,23,1L252.7,43.7C253.2,43.2,253.9,42.8,254.6,42.6L254.6,42.6z"/>
		</g>
		<path class="st2" d="M223.7,182.6h-64.1c-4.9,0-8.8,3.9-8.8,8.8V212h81.8v-20.6C232.5,186.5,228.6,182.6,223.7,182.6L223.7,182.6z
			"/>
		<path class="st3" d="M192.1,182.6h-32.5c-4.9,0-8.8,3.9-8.8,8.8V212h32.5v-20.6C183.3,186.5,187.2,182.6,192.1,182.6z"/>
	</g>
	<g class="st4">
		<path class="st5" d="M282,10.2c-14.8-13.5-37.2-13.5-52,0L68.6,157.7c-9.7,8.9-10.4,23.9-1.5,33.6c8.9,9.7,23.9,10.4,33.6,1.5
			l6.6-6.1v145.9c0,15.1,12.3,27.4,27.4,27.4h98.8v55.7c-5.9,2.8-10.1,8.9-10.1,15.9v15.2h-14.2c-7,0-13,4.1-15.9,10.1H99.4
			c-12.3,0-22.4,9.5-23,21.5c-0.6,13.2,10,23.7,22.6,23.7h94.3c2.8,5.9,8.9,10.1,15.9,10.1h29.3c4.1,0,7.5-3.4,7.5-7.5
			c0-4.1-3.4-7.5-7.5-7.5h-29.3c-1.4,0-2.6-1.2-2.6-2.6v-30.2c0-1.4,1.2-2.6,2.6-2.6h18.2c6.1,0,11-4.9,11-11v-19.2
			c0-1.4,1.2-2.6,2.6-2.6h30.2c1.4,0,2.6,1.2,2.6,2.6v19.2c0,6.1,4.9,11,11,11h18.2c1.4,0,2.6,1.2,2.6,2.6v30.2
			c0,1.4-1.2,2.6-2.6,2.6h-29.3c-4.1,0-7.5,3.4-7.5,7.5c0,4.1,3.4,7.5,7.5,7.5h29.3c7,0,13-4.1,15.9-10.1H413
			c12.6,0,23.2-10.5,22.6-23.7c-0.6-12.1-10.7-21.5-23-21.5h-93.8c-2.8-5.9-8.9-10.1-15.9-10.1h-14.2v-15.2c0-7-4.1-13-10.1-15.9
			v-55.7h98.8c15.1,0,27.4-12.3,27.4-27.4v-60.2c0-4.1-3.4-7.5-7.5-7.5c-4.1,0-7.5,3.4-7.5,7.5v60.2c0,6.8-5.5,12.4-12.4,12.4
			c-9.4,0-132.8,0-137.4,0c0-5.2,0-145.6,0-153.5c0-9-7.3-16.3-16.3-16.3h-64.1c-9,0-16.3,7.3-16.3,16.3v153.5h-8.6
			c-6.8,0-12.4-5.5-12.4-12.4V173L256,50.8L389.7,173v64.4c0,4.1,3.4,7.5,7.5,7.5c4.1,0,7.5-3.4,7.5-7.5v-50.7l6.6,6.1v0
			c9.7,8.8,24.7,8.2,33.6-1.5c8.8-9.7,8.2-24.7-1.5-33.6L282,10.2z M191.6,486.9H99c-4.3,0-7.8-3.6-7.6-8c0.2-4,3.8-7.2,8-7.2h92.1
			V486.9z M320.4,471.7h92.1c4.2,0,7.8,3.2,8,7.2c0.2,4.4-3.3,8-7.6,8h-92.6L320.4,471.7L320.4,471.7z M248.4,359.9h15.2v54h-15.2
			V359.9z M158.3,191.4c0-0.7,0.6-1.3,1.3-1.3h64.1c0.7,0,1.3,0.6,1.3,1.3v13.1h-66.8V191.4z M158.3,219.5H225v125.4h-66.8V219.5z
			 M433.9,181.1c-3.3,3.6-8.8,3.8-12.4,0.6v0c-1.9-1.8-155.6-142.2-160.4-146.6c-2.9-2.6-7.3-2.6-10.1,0L90.5,181.7
			c-3.6,3.3-9.2,3-12.4-0.6c-3.3-3.6-3-9.1,0.6-12.4L240.1,21.2c9-8.3,22.7-8.3,31.7,0l161.4,147.5
			C436.9,172,437.1,177.6,433.9,181.1L433.9,181.1z"/>
		<path class="st5" d="M277.9,175.1c-8.6,0-15.5,7-15.5,15.5v82.8c0,8.6,7,15.5,15.5,15.5h75.3c8.6,0,15.5-7,15.5-15.5v-82.8
			c0-8.6-7-15.5-15.5-15.5L277.9,175.1z M308.1,274h-30.2c-0.3,0-0.5-0.2-0.5-0.5v-33.9h30.7V274z M308.1,224.5h-30.7v-33.9
			c0-0.3,0.2-0.5,0.5-0.5h30.2V224.5z M353.8,273.4c0,0.3-0.2,0.5-0.5,0.5h-30.2v-34.4h30.7V273.4z M353.8,190.6v33.9h-30.7v-34.4
			h30.2C353.5,190.1,353.8,190.3,353.8,190.6z"/>
	</g>
</g>
</svg>
