<svg id="Capa_1" data-name="Capa 1" xmlns="http://www.w3.org/2000/svg" viewBox="0 0 512 512"><defs><style>.cls-1{fill:#b8f9d3;}.cls-2{fill:#59b08b;}.cls-3{fill:#4fc391;}.cls-4{fill:#5bd6a2;}.cls-5{fill:#71e2af;}.cls-6{fill:#fff;}</style></defs><title>recap</title><path class="cls-1" d="M330.35,150H239.26l-3.54-10C221.42,99.67,183.14,92.57,180,90.74V0l18,3.65A164.27,164.27,0,0,1,326.7,132Z" transform="translate(0 0)"/><path class="cls-2" d="M90,165c0-59.28,59.64-74,60-74.26V0L132,3.65a164.65,164.65,0,0,0-83.64,278L104.5,268,112,218A74.77,74.77,0,0,1,90,165Z" transform="translate(0 0)"/><path class="cls-3" d="M330.35,180l-3.65,18A164.94,164.94,0,0,1,48.38,281.62L112,218a74.77,74.77,0,0,0,53,22c60.69,0,73.05-58.29,74.26-60Z" transform="translate(0 0)"/><path class="cls-4" d="M330.35,180l-3.65,18A165.13,165.13,0,0,1,165,330V240c60.69,0,73.05-58.29,74.26-60Z" transform="translate(0 0)"/><path class="cls-5" d="M391,242h90V497H391Z" transform="translate(0 0)"/><path class="cls-3" d="M271,392h90V497H271Z" transform="translate(0 0)"/><path class="cls-1" d="M151,362h90V497H151Z" transform="translate(0 0)"/><path class="cls-2" d="M31,422h90v75H31Z" transform="translate(0 0)"/><path class="cls-6" d="M0,482H512v30H0Z" transform="translate(0 0)"/><path class="cls-6" d="M256,482H512v30H256Z" transform="translate(0 0)"/></svg>