<svg id="Layer_1" data-name="Layer 1" xmlns="http://www.w3.org/2000/svg" viewBox="0 0 464 464"><defs><style>.cls-1{fill:#fff;}.cls-2{fill:#5bd6a2;}.cls-3{fill:#4fc391;}.cls-4{fill:#b8f9d3;}.cls-5{fill:#54c796;}</style></defs><title>schedule-check</title><path class="cls-1" d="M0,432a32,32,0,0,0,32,32H432a32,32,0,0,0,32-32V160H0Z"/><path class="cls-2" d="M432,32H32A32,32,0,0,0,0,64v96H464V64A32,32,0,0,0,432,32Z"/><path class="cls-1" d="M96,72H88A24,24,0,0,0,64,96h0a24,24,0,0,0,24,24h48a24,24,0,0,0,24-24h0a24,24,0,0,0-24-24H96Z"/><path class="cls-3" d="M112,96h0A16,16,0,0,1,96,80V16A16,16,0,0,1,112,0h0a16,16,0,0,1,16,16V80A16,16,0,0,1,112,96Z"/><path class="cls-1" d="M336,72h-8a24,24,0,0,0-24,24h0a24,24,0,0,0,24,24h48a24,24,0,0,0,24-24h0a24,24,0,0,0-24-24H336Z"/><path class="cls-3" d="M352,96h0a16,16,0,0,1-16-16V16A16,16,0,0,1,352,0h0a16,16,0,0,1,16,16V80A16,16,0,0,1,352,96Z"/><rect class="cls-4" x="32" y="232" width="64" height="64"/><rect class="cls-4" x="144" y="232" width="64" height="64"/><rect class="cls-4" x="368" y="232" width="64" height="64"/><rect class="cls-4" x="32" y="344" width="64" height="64"/><rect class="cls-4" x="144" y="344" width="64" height="64"/><rect class="cls-4" x="256" y="344" width="64" height="64"/><rect class="cls-4" x="368" y="344" width="64" height="64"/><polygon class="cls-5" points="280 299.31 250.34 269.66 261.66 258.34 280 276.69 322.34 234.34 333.66 245.66 280 299.31"/><rect class="cls-4" x="424" y="184" width="16" height="16"/><rect class="cls-4" x="392" y="184" width="16" height="16"/><rect class="cls-4" x="360" y="184" width="16" height="16"/></svg>