<svg id="color" xmlns="http://www.w3.org/2000/svg" viewBox="0 0 512 469.33"><defs><style>.cls-1{fill:#4fc391;}.cls-2{fill:#fff;}.cls-3{fill:#59b08b;}.cls-4{fill:#d6f7e9;}</style></defs><title>schedule-add</title><path class="cls-1" d="M448,85.33V299.52a58.38,58.38,0,0,0-10.67-.85,62.63,62.63,0,0,0-32,8.74V128H42.67V362.67A21.39,21.39,0,0,0,64,384H328.75A62.54,62.54,0,0,0,320,416a58.45,58.45,0,0,0,.85,10.67H64a64.19,64.19,0,0,1-64-64V85.33a64.19,64.19,0,0,1,64-64H384A64.19,64.19,0,0,1,448,85.33Z" transform="translate(0 -21.33)"/><path class="cls-2" d="M405.33,128V307.41a64.28,64.28,0,0,0-30.93,45.66A64.23,64.23,0,0,0,328.75,384H64a21.39,21.39,0,0,1-21.33-21.33V128Z" transform="translate(0 -21.33)"/><path class="cls-3" d="M217.73,21.33H64a64.19,64.19,0,0,0-64,64V362.67a64.19,64.19,0,0,0,64,64H217.73V384H64a21.39,21.39,0,0,1-21.33-21.33V128H217.73Z" transform="translate(0 -21.33)"/><path class="cls-4" d="M217.73,128H42.67V362.67A21.39,21.39,0,0,0,64,384H217.73Z" transform="translate(0 -21.33)"/><path class="cls-1" d="M490.67,394.67h-32v-32a21.34,21.34,0,1,0-42.67,0v32H384a21.33,21.33,0,0,0,0,42.66h32v32a21.34,21.34,0,1,0,42.67,0v-32h32a21.33,21.33,0,1,0,0-42.66Z" transform="translate(0 -21.33)"/><path class="cls-3" d="M437.33,341.33A21.35,21.35,0,0,0,416,362.67v32H384a21.33,21.33,0,0,0,0,42.66h32v32a21.35,21.35,0,0,0,21.33,21.34Z" transform="translate(0 -21.33)"/></svg>